<?xml version="1.0" encoding="UTF-8"?>
<svg xmlns="http://www.w3.org/2000/svg" xmlns:xlink="http://www.w3.org/1999/xlink" width="16px" height="16px" viewBox="0 0 16 16" version="1.1">
<g id="surface1">
<path style=" stroke:none;fill-rule:nonzero;fill:rgb(100%,100%,100%);fill-opacity:1;" d="M 8.667969 2.667969 L 8.667969 13.332031 C 8.667969 13.703125 8.367188 14 8 14 C 7.632812 14 7.332031 13.703125 7.332031 13.332031 L 7.332031 2.667969 C 7.332031 2.296875 7.632812 2 8 2 C 8.367188 2 8.667969 2.296875 8.667969 2.667969 Z M 5.332031 3.332031 C 4.964844 3.332031 4.667969 3.632812 4.667969 4 L 4.667969 12 C 4.667969 12.367188 4.964844 12.667969 5.332031 12.667969 C 5.703125 12.667969 6 12.367188 6 12 L 6 4 C 6 3.632812 5.703125 3.332031 5.332031 3.332031 Z M 2.667969 4.667969 C 2.296875 4.667969 2 4.964844 2 5.332031 L 2 10.667969 C 2 11.035156 2.296875 11.332031 2.667969 11.332031 C 3.035156 11.332031 3.332031 11.035156 3.332031 10.667969 L 3.332031 5.332031 C 3.332031 4.964844 3.035156 4.667969 2.667969 4.667969 Z M 10.667969 3.332031 C 10.296875 3.332031 10 3.632812 10 4 L 10 12 C 10 12.367188 10.296875 12.667969 10.667969 12.667969 C 11.035156 12.667969 11.332031 12.367188 11.332031 12 L 11.332031 4 C 11.332031 3.632812 11.035156 3.332031 10.667969 3.332031 Z M 13.332031 4.667969 C 12.964844 4.667969 12.667969 4.964844 12.667969 5.332031 L 12.667969 10.667969 C 12.667969 11.035156 12.964844 11.332031 13.332031 11.332031 C 13.703125 11.332031 14 11.035156 14 10.667969 L 14 5.332031 C 14 4.964844 13.703125 4.667969 13.332031 4.667969 Z M 13.332031 4.667969 "/>
</g>
</svg>
